HIERARCHY
ROOT Hips
{
	OFFSET 0.00000 0.00000 0.00000
	CHANNELS 6 Xposition Yposition Zposition Zrotation Yrotation Xrotation 
	JOINT LHipJoint
	{
		OFFSET 0 0 0
		CHANNELS 3 Zrotation Yrotation Xrotation
		JOINT LeftUpLeg
		{
			OFFSET 1.64549 -1.70879 0.84566
			CHANNELS 3 Zrotation Yrotation Xrotation
			JOINT LeftLeg
			{
				OFFSET 2.24963 -6.18082 0.00000
				CHANNELS 3 Zrotation Yrotation Xrotation
				JOINT LeftFoot
				{
					OFFSET 2.71775 -7.46697 0.00000
					CHANNELS 3 Zrotation Yrotation Xrotation
					JOINT LeftToeBase
					{
						OFFSET 0.18768 -0.51564 2.24737
						CHANNELS 3 Zrotation Yrotation Xrotation
						End Site
						{
							OFFSET 0.00000 -0.00000 1.15935
						}
					}
				}
			}
		}
	}
	JOINT RHipJoint
	{
		OFFSET 0 0 0
		CHANNELS 3 Zrotation Yrotation Xrotation
		JOINT RightUpLeg
		{
			OFFSET -1.58830 -1.70879 0.84566
			CHANNELS 3 Zrotation Yrotation Xrotation
			JOINT RightLeg
			{
				OFFSET -2.25006 -6.18201 0.00000
				CHANNELS 3 Zrotation Yrotation Xrotation
				JOINT RightFoot
				{
					OFFSET -2.72829 -7.49593 0.00000
					CHANNELS 3 Zrotation Yrotation Xrotation
					JOINT RightToeBase
					{
						OFFSET -0.21541 -0.59185 2.10643
						CHANNELS 3 Zrotation Yrotation Xrotation
						End Site
						{
							OFFSET -0.00000 -0.00000 1.09838
						}
					}
				}
			}
		}
	}
	JOINT LowerBack
	{
		OFFSET 0 0 0
		CHANNELS 3 Zrotation Yrotation Xrotation
		JOINT Spine
		{
			OFFSET 0.03142 2.10496 -0.11038
			CHANNELS 3 Zrotation Yrotation Xrotation
			JOINT Spine1
			{
				OFFSET -0.01863 2.10897 -0.06956
				CHANNELS 3 Zrotation Yrotation Xrotation
				JOINT Neck
				{
					OFFSET 0 0 0
					CHANNELS 3 Zrotation Yrotation Xrotation
					JOINT Neck1
					{
						OFFSET -0.02267 1.73238 0.00451
						CHANNELS 3 Zrotation Yrotation Xrotation
						JOINT Head
						{
							OFFSET -0.05808 1.54724 -0.61749
							CHANNELS 3 Zrotation Yrotation Xrotation
							End Site
							{
								OFFSET -0.01396 1.71468 -0.21082
							}
						}
					}
				}
				JOINT LeftShoulder
				{
					OFFSET 0 0 0
					CHANNELS 3 Zrotation Yrotation Xrotation
					JOINT LeftArm
					{
						OFFSET 3.44898 0.50298 0.21920
						CHANNELS 3 Zrotation Yrotation Xrotation
						JOINT LeftForeArm
						{
							OFFSET 5.41917 -0.00000 -0.00000
							CHANNELS 3 Zrotation Yrotation Xrotation
							JOINT LeftHand
							{
								OFFSET 2.44373 -0.00000 0.00000
								CHANNELS 3 Zrotation Yrotation Xrotation
								JOINT LeftFingerBase
								{
									OFFSET 0 0 0
									CHANNELS 3 Zrotation Yrotation Xrotation
									JOINT LeftHandIndex1
									{
										OFFSET 0.72750 -0.00000 0.00000
										CHANNELS 3 Zrotation Yrotation Xrotation
										End Site
										{
											OFFSET 0.58653 -0.00000 0.00000
										}
									}
								}
								JOINT LThumb
								{
									OFFSET 0 0 0
									CHANNELS 3 Zrotation Yrotation Xrotation
									End Site
									{
										OFFSET 0.59549 -0.00000 0.59549
									}
								}
							}
						}
					}
				}
				JOINT RightShoulder
				{
					OFFSET 0 0 0
					CHANNELS 3 Zrotation Yrotation Xrotation
					JOINT RightArm
					{
						OFFSET -3.23015 0.55830 0.31051
						CHANNELS 3 Zrotation Yrotation Xrotation
						JOINT RightForeArm
						{
							OFFSET -5.58976 -0.00010 0.00014
							CHANNELS 3 Zrotation Yrotation Xrotation
							JOINT RightHand
							{
								OFFSET -2.48060 -0.00000 0.00000
								CHANNELS 3 Zrotation Yrotation Xrotation
								JOINT RightFingerBase
								{
									OFFSET 0 0 0
									CHANNELS 3 Zrotation Yrotation Xrotation
									JOINT RightHandIndex1
									{
										OFFSET -0.81601 -0.00000 0.00000
										CHANNELS 3 Zrotation Yrotation Xrotation
										End Site
										{
											OFFSET -0.65789 -0.00000 0.00000
										}
									}
								}
								JOINT RThumb
								{
									OFFSET 0 0 0
									CHANNELS 3 Zrotation Yrotation Xrotation
									End Site
									{
										OFFSET -0.66793 -0.00000 0.66793
									}
								}
							}
						}
					}
				}
			}
		}
	}
}
MOTION
Frames: 10
Frame Time: 0.0425532
0.00 0.00 0.00 -169.3360 -20.3272 -169.2140 0.0000 0.0000 0.0000 -3.3731 -16.4839 -52.1863 2.5846 9.9901 28.9445 8.9012 10.6273 -60.1081 5.2763 13.6883 42.0030 0.0000 0.0000 0.0000 39.3084 -0.0282 -14.4355 -2.5924 -10.0039 28.9895 -2.6668 -15.7901 -39.5512 -0.5696 -4.8334 13.4340 6.5364 2.5777 -0.5850 5.9923 3.1715 -5.6332 2.5074 1.1151 -5.5208 4.5544 8.0313 -6.1479 5.3244 6.6255 32.4786 1.7740 3.2768 11.5993 0.0000 0.0000 0.0000 -62.0549 -17.2822 89.4311 66.8049 -57.8662 -40.0563 -0.0000 0.0000 -36.4005 -21.1855 20.9843 -7.9021 -7.1250 0.0000 -0.0000 -45.0869 45.8105 -1.1415 0.0000 0.0000 0.0000 58.0484 -13.5298 92.1318 -28.0269 39.1410 -10.1407 0.0000 -0.0000 -42.9125 30.6535 -2.5481 -1.5093 7.1250 -0.0000 -0.0000 41.0252 -29.0228 21.6152
0.00 0.00 0.00 -174.9950 -23.1837 -164.5950 0.0000 0.0000 0.0000 -18.0065 -12.8257 -44.1037 2.3238 9.5103 27.4050 5.1432 17.2990 -50.5860 3.7808 11.8628 35.2483 0.0000 0.0000 0.0000 31.3423 1.5542 0.7615 -0.8633 -5.9247 16.5661 0.8289 -24.5897 -29.1493 -0.0001 0.0686 -0.1884 5.3534 6.0000 -8.7017 3.4642 6.5568 -10.4898 0.9749 2.4626 -5.9823 7.6805 14.6123 -1.1174 10.3392 16.4241 23.0475 3.1286 8.9622 7.0950 0.0000 0.0000 0.0000 -33.1325 -15.8987 73.6349 28.2628 -39.3570 -10.2899 -0.0000 0.0000 -5.7808 -19.0746 18.5004 -6.2615 -7.1250 0.0000 -0.0000 -41.9489 44.1432 1.0957 0.0000 0.0000 0.0000 59.2521 -27.3372 86.9030 -29.7938 40.7160 -11.2749 0.0000 -0.0000 -45.2335 29.2614 -3.0045 -1.6822 7.1250 -0.0000 -0.0000 40.5522 -29.6997 20.2066
0.00 0.00 0.00 -175.9880 -27.6318 -161.4240 0.0000 0.0000 0.0000 -23.7265 -10.0339 -41.2018 2.1605 9.1926 26.3998 3.4536 16.3467 -43.4698 2.6870 10.1703 29.5299 0.0000 0.0000 0.0000 29.9990 -0.8934 0.6405 -0.7890 -5.6703 15.8306 2.9227 -31.3484 -26.6926 -0.6254 -5.0604 14.0808 5.5236 7.2988 -14.6904 1.9368 6.8558 -14.7383 -0.2519 2.0119 -7.2685 9.1071 15.1137 0.7949 11.8784 17.1515 21.6422 3.2091 9.4746 6.3125 -0.0000 0.0000 0.0000 -7.9842 -22.7674 55.6605 23.4694 -34.5981 -7.4031 -0.0000 -0.0000 5.4317 -26.4823 18.2313 -8.8590 -7.1250 0.0000 -0.0000 -46.9403 42.8809 3.2764 -0.0000 0.0000 0.0000 58.9082 -34.7422 86.7450 -33.5540 43.7516 -13.8037 0.0000 -0.0000 -43.0574 32.3023 -3.3847 -2.1377 7.1250 -0.0000 -0.0000 42.1102 -29.4008 22.1090
0.00 0.00 0.00 -177.9010 -31.1712 -159.0320 0.0000 0.0000 0.0000 -28.0487 -7.8862 -40.6484 2.2907 9.4471 27.2041 2.5669 15.2816 -38.6932 1.2001 6.9506 19.5691 0.0000 0.0000 0.0000 29.8451 -4.4957 -7.3845 -2.3919 -9.6386 27.8140 2.6735 -31.8170 -30.1514 -3.2356 -11.0670 32.5061 2.6530 6.7087 -15.6884 1.1991 5.8408 -16.9541 0.4751 1.4801 -9.5966 6.8388 15.4846 -0.2832 14.5326 17.6542 19.6658 4.2127 9.7493 5.3374 0.0000 -0.0000 0.0000 9.9810 -27.9219 27.8606 19.2199 -29.6911 -5.1393 -0.0000 -0.0000 9.2293 -22.2650 19.3032 -7.7076 -7.1250 0.0000 -0.0000 -44.7646 44.3379 0.9339 0.0000 -0.0000 0.0000 57.0221 -36.3197 90.6179 -35.0109 44.8199 -14.8210 0.0000 -0.0000 -42.7402 31.2877 -2.6186 -1.5904 7.1250 -0.0000 -0.0000 41.3418 -28.9500 22.0305
0.00 0.00 0.00 -178.8920 -34.2835 -159.0370 0.0000 0.0000 0.0000 -30.1722 -6.1948 -39.6305 2.3069 9.4781 27.3025 1.6080 16.3144 -34.5319 0.1430 2.4370 6.7151 0.0000 0.0000 0.0000 30.7795 -8.5572 -11.1461 -3.5907 -11.5949 34.3135 3.0370 -29.2075 -14.8460 -1.3815 -7.4373 21.0177 1.0138 5.5018 -15.3989 1.3010 4.4423 -17.1836 1.3557 0.9867 -10.2025 6.4931 15.4966 -0.4818 14.6283 17.8287 18.7626 4.2397 9.8099 5.0290 -0.0000 -0.0000 0.0000 17.0886 -29.9822 15.4040 18.1861 -28.3947 -4.6374 -0.0000 -0.0000 10.9612 -22.6901 21.8895 -8.8598 -7.1250 0.0000 -0.0000 -46.8096 46.2868 -1.9141 -0.0000 -0.0000 0.0000 53.1772 -35.8613 96.3598 -39.4834 47.7609 -18.0559 0.0000 -0.0000 -43.2643 28.5394 -2.1660 -1.1775 7.1250 -0.0000 -0.0000 39.8577 -29.0975 20.4290
0.00 0.00 0.00 -178.4230 -35.6251 -158.6180 0.0000 0.0000 0.0000 -29.5750 -7.0646 -39.7946 2.4303 9.7101 28.0429 2.4684 13.0588 -36.5874 0.3220 3.6472 10.0861 0.0000 0.0000 0.0000 32.2261 -10.2659 -13.9640 -3.9478 -12.0906 36.0531 1.3420 -21.5905 0.6895 -0.0349 -1.2055 3.3146 0.5793 5.0201 -16.1970 1.7781 3.7311 -17.4551 2.1095 0.6729 -10.1694 6.9755 15.3145 0.0381 13.5333 17.8732 18.0173 3.7815 9.7628 4.8644 0.0000 0.0000 0.0000 21.3410 -30.4748 6.6326 17.7634 -27.8532 -4.4382 -0.0000 -0.0000 12.4899 -22.5099 23.8547 -9.5142 -7.1250 0.0000 -0.0000 -48.1089 47.8071 -4.2951 0.0000 0.0000 0.0000 47.1780 -33.1536 103.7272 -46.4660 51.4668 -23.3800 0.0000 -0.0000 -41.9409 25.3869 0.6272 0.2976 7.1250 -0.0000 -0.0000 37.1908 -27.1630 20.5301
0.00 0.00 0.00 -178.1860 -34.3978 -158.7050 0.0000 0.0000 0.0000 -30.1610 -5.4727 -40.2373 2.5017 9.8410 28.4635 2.2885 12.8735 -35.5054 0.4661 4.3792 12.1461 0.0000 0.0000 0.0000 32.4697 -9.6692 -15.9295 -4.2139 -12.4398 37.3060 0.0818 -16.9828 11.1177 -0.1014 -2.0537 5.6540 -0.3281 3.9876 -17.0238 3.0255 2.7556 -15.8348 3.8752 0.4750 -7.8929 0.4877 8.3220 -6.6799 13.9240 7.4498 23.6055 5.1314 4.5145 7.8190 -0.0000 0.0000 0.0000 26.8223 -30.3815 -16.5406 16.0821 -25.6318 -3.6814 -0.0000 -0.0000 16.6980 -13.4320 25.9747 -5.9713 -7.1250 0.0000 -0.0000 -42.5096 50.8897 -7.3101 -0.0000 0.0000 0.0000 35.0346 -12.7378 102.8249 -72.6254 58.8280 -45.0123 0.0000 -0.0000 -27.3889 32.4164 -1.0931 -0.6940 7.1250 -0.0000 -0.0000 41.2085 -27.3333 24.2957
0.00 0.00 0.00 -178.5900 -31.2631 -158.3350 0.0000 0.0000 0.0000 -32.0602 -3.2020 -41.9112 2.4124 9.6769 27.9365 1.7801 15.0122 -34.3732 0.2042 2.9096 8.0273 0.0000 0.0000 0.0000 31.7009 -7.0139 -17.9139 -5.0612 -13.4524 41.0865 0.4387 -19.0390 9.1632 -0.0969 -2.0077 5.5269 0.7499 3.1394 -17.8468 2.4393 1.8002 -13.9049 2.4984 -0.0121 -5.0710 -6.2227 -0.1423 -11.1849 13.5600 -5.6175 31.9771 5.4426 -2.4990 13.0820 -0.0000 -0.0000 0.0000 27.8348 -26.3052 -18.8501 15.7792 -25.2203 -3.5513 -0.0000 -0.0000 17.9533 -10.3740 26.8579 -4.7279 -7.1250 0.0000 -0.0000 -40.5817 52.1026 -8.2126 -0.0000 -0.0000 0.0000 40.3930 5.6505 77.0899 -82.4495 59.7835 -53.4658 0.0000 -0.0000 -18.5621 32.7234 -3.2922 -2.1133 7.1250 -0.0000 -0.0000 42.2486 -29.2199 22.5295
0.00 0.00 0.00 -179.1900 -29.2558 -159.5600 0.0000 0.0000 0.0000 -32.2829 -3.0057 -40.6879 2.3073 9.4787 27.3046 0.7901 19.5162 -32.9695 0.0031 0.3611 0.9921 0.0000 0.0000 0.0000 31.9394 -5.8437 -17.7115 -5.2960 -13.7095 42.0862 1.7268 -25.7437 3.8373 -0.8674 -5.9384 16.6057 0.1694 0.5199 -19.3185 2.8351 -0.9323 -10.0033 2.7296 -1.0549 0.0847 -16.2614 -9.9830 -6.7991 12.0870 -21.5823 34.2592 3.7147 -11.4538 16.7193 0.0000 -0.0000 0.0000 24.2029 -19.7696 -16.9738 15.8029 -25.2527 -3.5615 -0.0000 -0.0000 17.8365 -8.0242 28.3675 -3.8319 -7.1250 0.0000 -0.0000 -39.7158 53.7159 -9.6977 0.0000 -0.0000 0.0000 68.9871 18.6282 50.2486 -87.8751 59.9829 -58.1599 0.0000 -0.0000 -42.6465 0.8182 8.0806 0.1150 7.1250 -0.0000 -0.0000 19.7982 -22.0066 11.6327
0.00 0.00 0.00 -178.7090 -27.5845 -159.3900 0.0000 0.0000 0.0000 -31.6495 -3.5751 -40.8846 2.1888 9.2488 26.5768 1.9899 16.7837 -36.9936 0.5800 4.8766 13.5571 0.0000 0.0000 0.0000 32.3271 -6.2975 -17.8360 -4.9527 -13.3303 40.6178 1.9159 -27.3766 4.6809 -0.3563 -3.8349 10.6127 0.0157 -0.4628 -22.0642 4.2218 -2.1670 -7.9383 3.9585 -1.5890 3.8140 -17.7585 -14.8802 -1.5813 9.2394 -27.6050 29.3183 1.9833 -14.4861 14.0566 -0.0000 0.0000 0.0000 17.8472 -14.8323 -14.1867 15.6593 -25.0566 -3.5004 -0.0000 -0.0000 16.2491 -9.4237 27.3636 -4.3625 -7.1250 0.0000 -0.0000 -40.1482 52.6686 -8.7109 -0.0000 0.0000 0.0000 80.6325 15.5552 53.9536 -69.7321 58.3895 -42.5424 0.0000 -0.0000 -78.3145 17.5476 -1.6961 -0.5362 7.1250 -0.0000 -0.0000 33.3329 -30.1187 14.4357
